<svg width="127" height="40" viewBox="0 0 127 40" fill="none" xmlns="http://www.w3.org/2000/svg">
<g clip-path="url(#clip0_1_6)">
<path d="M21.0539 31L15.8191 21.4515L21.0539 11.902L26.7278 8.78111L34.1809 21.4515L28.5148 31H21.0539Z" fill="#C7AA8B"/>
</g>
<path d="M54.3047 24.6875C54.3047 24.2891 54.2578 23.9375 54.1641 23.6328C54.0703 23.3203 53.9062 23.0391 53.6719 22.7891C53.4375 22.5391 53.1094 22.3008 52.6875 22.0742C52.2656 21.8477 51.7305 21.6172 51.082 21.3828C50.3789 21.1328 49.7422 20.8555 49.1719 20.5508C48.6016 20.2383 48.1133 19.8828 47.707 19.4844C47.3086 19.0859 47 18.6289 46.7812 18.1133C46.5625 17.5977 46.4531 17.0078 46.4531 16.3438C46.4531 15.6797 46.5664 15.0664 46.793 14.5039C47.0273 13.9414 47.3555 13.4531 47.7773 13.0391C48.207 12.6172 48.7227 12.2891 49.3242 12.0547C49.9258 11.8203 50.5977 11.7031 51.3398 11.7031C52.4492 11.7031 53.3828 11.9492 54.1406 12.4414C54.9062 12.9258 55.4844 13.5625 55.875 14.3516C56.2656 15.1328 56.4609 15.9688 56.4609 16.8594H54.3047C54.3047 16.2188 54.1992 15.6523 53.9883 15.1602C53.7852 14.6602 53.4648 14.2695 53.0273 13.9883C52.5977 13.6992 52.0352 13.5547 51.3398 13.5547C50.7148 13.5547 50.1992 13.6758 49.793 13.918C49.3945 14.1602 49.0977 14.4883 48.9023 14.9023C48.7148 15.3164 48.6211 15.7891 48.6211 16.3203C48.6211 16.6797 48.6836 17.0078 48.8086 17.3047C48.9336 17.5938 49.125 17.8633 49.3828 18.1133C49.6484 18.3633 49.9766 18.5938 50.3672 18.8047C50.7656 19.0156 51.2344 19.2188 51.7734 19.4141C52.6094 19.6875 53.3242 19.9922 53.918 20.3281C54.5117 20.6641 54.9961 21.043 55.3711 21.4648C55.7461 21.8789 56.0195 22.3516 56.1914 22.8828C56.3711 23.4062 56.4609 24 56.4609 24.6641C56.4609 25.3594 56.3438 25.9883 56.1094 26.5508C55.8828 27.1133 55.5508 27.5938 55.1133 27.9922C54.6758 28.3906 54.1484 28.6992 53.5312 28.918C52.9141 29.1289 52.2188 29.2344 51.4453 29.2344C50.7734 29.2344 50.1133 29.125 49.4648 28.9062C48.8242 28.6875 48.2422 28.3594 47.7188 27.9219C47.1953 27.4844 46.7773 26.9453 46.4648 26.3047C46.1523 25.6562 45.9961 24.9062 45.9961 24.0547H48.1523C48.1523 24.6406 48.2383 25.1445 48.4102 25.5664C48.582 25.9805 48.8203 26.3242 49.125 26.5977C49.4297 26.8711 49.7773 27.0742 50.168 27.207C50.5664 27.332 50.9922 27.3945 51.4453 27.3945C52.0703 27.3945 52.5938 27.2852 53.0156 27.0664C53.4453 26.8477 53.7656 26.5352 53.9766 26.1289C54.1953 25.7227 54.3047 25.2422 54.3047 24.6875ZM64.7695 11.9375V29H62.6367V11.9375H64.7695ZM69.2578 11.9375V13.7891H58.1602V11.9375H69.2578ZM82.5469 18.9922V21.957C82.5469 23.1602 82.4141 24.2188 82.1484 25.1328C81.8906 26.0391 81.5117 26.7969 81.0117 27.4062C80.5117 28.0156 79.9102 28.4727 79.207 28.7773C78.5039 29.082 77.7109 29.2344 76.8281 29.2344C75.9766 29.2344 75.1992 29.082 74.4961 28.7773C73.793 28.4727 73.1875 28.0156 72.6797 27.4062C72.1719 26.7969 71.7773 26.0391 71.4961 25.1328C71.2227 24.2188 71.0859 23.1602 71.0859 21.957V18.9922C71.0859 17.7891 71.2227 16.7344 71.4961 15.8281C71.7695 14.9141 72.1602 14.1523 72.668 13.543C73.1758 12.9336 73.7812 12.4766 74.4844 12.1719C75.1875 11.8594 75.9648 11.7031 76.8164 11.7031C77.6992 11.7031 78.4922 11.8594 79.1953 12.1719C79.9062 12.4766 80.5078 12.9336 81 13.543C81.5 14.1523 81.8828 14.9141 82.1484 15.8281C82.4141 16.7344 82.5469 17.7891 82.5469 18.9922ZM80.4141 21.957V18.9688C80.4141 18.0312 80.3359 17.2266 80.1797 16.5547C80.0234 15.875 79.793 15.3203 79.4883 14.8906C79.1836 14.4609 78.8086 14.1445 78.3633 13.9414C77.918 13.7305 77.4023 13.625 76.8164 13.625C76.2617 13.625 75.7617 13.7305 75.3164 13.9414C74.8789 14.1445 74.5039 14.4609 74.1914 14.8906C73.8789 15.3203 73.6367 15.875 73.4648 16.5547C73.3008 17.2266 73.2188 18.0312 73.2188 18.9688V21.957C73.2188 22.9023 73.3008 23.7148 73.4648 24.3945C73.6367 25.0664 73.8789 25.6211 74.1914 26.0586C74.5117 26.4883 74.8945 26.8086 75.3398 27.0195C75.7852 27.2227 76.2812 27.3242 76.8281 27.3242C77.4141 27.3242 77.9297 27.2227 78.375 27.0195C78.8281 26.8086 79.2031 26.4883 79.5 26.0586C79.8047 25.6211 80.0312 25.0664 80.1797 24.3945C80.3359 23.7148 80.4141 22.9023 80.4141 21.957ZM97.043 11.9375V29H94.875L88.043 15.8398V29H85.8867V11.9375H88.043L94.9102 25.1328V11.9375H97.043ZM109.945 27.1602V29H102.539V27.1602H109.945ZM102.926 11.9375V29H100.77V11.9375H102.926ZM108.949 19.2734V21.1133H102.539V19.2734H108.949ZM109.828 11.9375V13.7891H102.539V11.9375H109.828Z" fill="#EDEDED"/>
<defs>
<clipPath id="clip0_1_6">
<rect width="20" height="23" fill="white" transform="translate(15 8)"/>
</clipPath>
</defs>
</svg>
